PathFileType	4	(X/Y/Z)	Run_500 03
DataRate	CameraRate	NumFrames	NumMarkers	Units	OrigDataRate	OrigDataStartFrame	OrigNumFrames
100	100	6	45	mm	100	99	137
Frame#	Time	RASI			LPSI			RPSI			RTH1			RTH2			RTH3			LTH1			LTH2			LTH3			RTB1			RTB2			RTB3			RLMAL			RMMAL			LTB1			LTB2			LTB3			RCAL			RTOE			RMT5			LCAL			LTOE			LMT5			LACR			RACR			CLAV			C7			LPSH			RUA1			RUA2			RUA3			RLEL			RMEL			LUA1			LUA2			LUA3			LLEL			LMEL			RFAsuperior			RFAradius			RFAulna			LFAsuperior			LFAradius			LFAulna			LASI		
		X1	Y1	Z1	X2	Y2	Z2	X3	Y3	Z3	X4	Y4	Z4	X5	Y5	Z5	X6	Y6	Z6	X7	Y7	Z7	X8	Y8	Z8	X9	Y9	Z9	X10	Y10	Z10	X11	Y11	Z11	X12	Y12	Z12	X13	Y13	Z13	X14	Y14	Z14	X15	Y15	Z15	X16	Y16	Z16	X17	Y17	Z17	X18	Y18	Z18	X19	Y19	Z19	X20	Y20	Z20	X21	Y21	Z21	X22	Y22	Z22	X23	Y23	Z23	X24	Y24	Z24	X25	Y25	Z25	X26	Y26	Z26	X27	Y27	Z27	X28	Y28	Z28	X29	Y29	Z29	X30	Y30	Z30	X31	Y31	Z31	X32	Y32	Z32	X33	Y33	Z33	X34	Y34	Z34	X35	Y35	Z35	X36	Y36	Z36	X37	Y37	Z37	X38	Y38	Z38	X39	Y39	Z39	X40	Y40	Z40	X41	Y41	Z41	X42	Y42	Z42	X43	Y43	Z43	X44	Y44	Z44	X45	Y45	Z45	

99	  0.990000	932.169480	1025.762005	-232.365391	771.570298	1055.070517	-406.375356	770.449338	1058.341964	-319.516845	904.790594	780.777631	-189.482025	998.954052	741.890497	-224.393662	971.231370	624.715498	-230.726984	851.123656	782.603715	-511.475657	936.509677	679.880872	-512.612733	899.821016	583.703328	-496.091359	1027.322254	390.679969	-300.312421	978.068142	340.334029	-257.533159	965.128707	215.344763	-309.311528	892.548799	118.904553	-295.691198	915.950120	135.307250	-376.056195	818.314770	437.015132	-460.792521	714.110788	521.543557	-479.759838	628.698186	455.533458	-442.902725	826.067326	 99.782329	-362.323993	1052.289506	 64.392389	-326.992280	972.567992	 56.784854	-260.373846	487.156368	554.813877	-388.420373	457.964602	334.564865	-420.738668	437.347285	398.762827	-481.799022	914.201503	1526.930882	-486.389009	920.210218	1476.966638	-166.629480	982.215072	1433.843581	-307.035175	877.336697	1531.885621	-323.853035	828.649503	1496.329955	-495.278096	859.241254	1343.333054	-69.729557	772.804732	1307.556668	-79.452211	770.775965	1259.452228	-27.188811	768.902855	1196.473534	  7.132927	738.016202	1178.075111	-72.519807	813.295544	1433.215291	-564.734550	739.022888	1369.568492	-558.992584	740.203220	1341.343546	-629.344692	727.039560	1270.307681	-670.465423	693.258319	1246.979531	-588.157639	801.039934	1122.482284	  0.824688	978.704868	1063.877206	-72.048967	949.064236	1009.891951	-43.423167	784.752268	1194.317027	-642.947561	941.045308	1197.199217	-563.265599	932.146048	1137.926397	-597.039049	940.944351	1007.652841	-465.941447	
100	  1.000000	926.980102	1021.491975	-227.917008	765.972696	1052.471154	-405.849161	766.037205	1056.032280	-320.252008	895.368190	776.224779	-190.396612	988.376235	736.836836	-224.968819	955.832542	619.682199	-231.993129	858.186567	782.064765	-510.267981	952.347222	685.407023	-510.707638	922.845560	588.210073	-494.357799	1002.212483	383.778398	-303.181392	950.738354	336.099434	-259.001231	928.678817	212.136273	-309.762095	849.518593	119.788776	-295.145806	873.458254	135.599161	-375.628494	852.136191	438.832161	-459.104887	745.006527	518.696907	-480.151080	661.748101	448.494368	-444.539634	781.893761	100.679219	-361.390211	1007.832316	 63.100206	-326.949083	928.045722	 56.361140	-259.422260	512.009980	541.202559	-394.234474	498.898809	318.917714	-422.189635	475.986574	380.364973	-485.465254	913.074115	1523.923875	-487.209898	924.780182	1473.787637	-166.832811	983.027284	1430.459626	-308.922779	878.993638	1530.448584	-322.841731	826.662413	1495.254858	-493.871622	869.294925	1335.309067	-70.728509	782.559121	1297.549797	-77.942044	783.537421	1248.787861	-26.104364	786.104718	1185.816267	  7.532861	753.191865	1165.864710	-71.431444	807.423121	1431.651477	-562.012597	731.857563	1368.916194	-553.223002	729.731849	1341.626537	-624.036102	714.322461	1271.843242	-665.148180	683.455565	1247.853463	-582.613381	820.667864	1112.980539	 -0.011874	998.056579	1061.217621	-76.206760	970.687935	1006.557949	-46.304679	770.046823	1192.981214	-641.996303	929.410665	1186.608990	-570.000019	916.453194	1128.762025	-604.453002	935.440214	1004.195323	-464.912144	
101	  1.010000	923.196914	1018.974243	-224.768626	762.073096	1052.367798	-404.644569	762.979471	1055.790320	-319.273840	883.797945	771.858592	-190.913792	974.846532	728.058777	-224.044301	935.001972	612.168690	-233.512561	865.855415	784.701896	-510.172563	969.077040	695.515389	-508.622810	945.858991	597.116678	-492.725218	972.971783	374.623326	-304.610898	919.904662	329.091507	-259.805390	890.412750	207.103461	-310.025577	806.418085	120.030537	-294.081869	830.397690	135.250139	-374.919872	885.928006	443.621706	-458.095165	774.633769	517.272571	-479.691845	694.769116	441.331607	-446.138974	738.057635	100.954418	-360.458598	963.627946	 62.213521	-325.949496	883.737921	 56.224686	-258.017433	535.753004	523.855521	-399.037186	543.359090	301.061292	-424.244398	516.829867	359.617741	-489.187666	911.304478	1523.034075	-487.684377	929.428321	1472.851767	-167.844733	983.274511	1428.888971	-311.214970	879.799470	1530.289926	-322.222782	824.153151	1496.138537	-492.466096	878.642585	1330.940161	-72.288356	791.953636	1290.512061	-78.040496	795.767311	1241.514654	-26.377343	802.649811	1178.498826	  6.488833	767.894549	1157.037763	-71.641782	801.790553	1432.614221	-559.259011	725.309202	1371.183588	-546.748468	720.281302	1344.282429	-617.984097	702.208067	1275.125825	-658.643733	674.277343	1251.219222	-575.760036	840.623308	1107.151018	 -2.665353	1017.116304	1063.793730	-83.704286	992.709696	1008.241444	-52.538592	755.631597	1193.518041	-639.351894	917.332336	1179.414758	-574.594350	900.341870	1122.532031	-608.705425	930.542721	1004.659889	-464.433008	
102	  1.020000	921.385269	1018.040188	-224.087361	759.786936	1054.884967	-402.800970	761.047602	1057.842180	-316.582453	871.493354	769.161969	-191.089990	959.418305	717.839294	-222.395325	912.252608	604.866406	-234.718642	873.924538	789.528554	-510.657200	985.854467	709.132878	-506.677416	968.767415	608.788434	-491.464839	940.950023	365.802765	-304.387458	885.916003	322.399286	-260.123147	851.343573	202.609226	-310.105699	763.854998	120.728388	-293.392785	788.368685	135.158455	-374.708982	918.784949	450.729550	-457.236372	802.531586	516.417348	-478.717058	727.633108	433.900751	-447.496964	694.884423	101.201594	-360.498608	920.042661	 61.913675	-324.894160	840.045142	 56.249411	-257.208080	559.806651	503.031507	-402.447474	590.631582	282.069418	-427.045738	559.416870	337.700042	-492.839151	907.931619	1524.241156	-487.720590	933.950984	1474.158036	-169.080259	983.230267	1429.313213	-313.501889	879.571630	1531.116939	-321.819200	820.419880	1498.360837	-490.522793	886.860508	1330.151657	-73.956136	800.714109	1286.799667	-79.009329	807.080750	1237.793421	-27.509886	817.485918	1174.762819	  4.390847	781.111137	1152.429014	-72.911486	795.784475	1435.671342	-556.305460	719.104011	1375.995032	-540.186790	711.414267	1348.995628	-611.599525	690.217849	1279.954667	-651.607734	665.122526	1256.810863	-567.972984	859.359765	1105.391119	 -7.120640	1034.433825	1072.416225	-94.311690	1013.841791	1015.551151	-62.528953	741.384155	1195.924900	-634.974819	904.948759	1176.482829	-576.915574	884.308396	1119.887730	-609.412637	927.247658	1008.266513	-464.212569	
103	  1.030000	921.659662	1018.474905	-225.816674	758.920784	1059.333881	-401.123763	760.025391	1061.715870	-313.572353	859.649489	768.792914	-191.288780	943.279903	709.553784	-221.363458	890.009346	600.445730	-235.034214	881.688794	796.147681	-511.020712	1001.297763	725.190047	-504.897839	990.688546	622.536524	-490.413867	907.552623	359.822671	-302.843898	850.092201	318.658777	-259.796965	812.107011	200.722932	-309.718182	722.092373	122.605799	-293.054499	748.231735	135.957398	-374.939102	950.140820	459.545926	-456.022211	828.694990	515.437703	-477.688036	760.608341	426.094158	-448.373171	652.544688	102.326894	-361.347454	877.030778	 61.947521	-324.402056	797.030265	 56.319140	-257.105640	585.580973	479.195058	-404.431144	639.896274	262.729034	-430.409937	603.432273	315.346882	-496.251142	902.752589	1527.403926	-487.376164	937.980174	1477.576804	-170.091350	983.117761	1432.019583	-315.555314	878.792004	1533.414521	-321.379734	815.435898	1501.745125	-487.701875	893.996853	1332.253981	-75.582769	808.659689	1286.413848	-79.895714	817.285567	1237.224217	-28.982940	830.316745	1174.225169	  1.643091	792.339860	1151.899476	-74.932034	788.892089	1440.390992	-552.917143	712.542780	1382.593367	-534.109370	702.324702	1355.114625	-605.204513	677.913645	1286.083161	-644.315606	655.469571	1264.071111	-559.629359	875.796362	1107.427027	-13.209343	1048.835161	1086.816713	-107.293872	1032.837565	1028.199528	-75.976190	727.321279	1200.319767	-628.850461	892.553984	1178.114548	-577.177576	869.045255	1121.237431	-607.030265	925.714797	1013.645118	-464.376531	
104	  1.040000	923.546570	1020.210335	-228.738701	759.162253	1064.941664	-400.211290	759.994313	1066.664577	-311.547820	848.446890	770.544134	-191.734566	927.218823	705.101834	-221.669427	868.373960	599.821940	-234.538267	888.462228	804.548783	-510.946219	1014.215772	742.708609	-503.211204	1010.213299	638.354838	-489.284645	873.436308	357.673199	-300.852800	813.729688	318.721752	-258.984085	772.503653	202.354836	-308.858522	680.798346	126.229759	-292.690631	709.131907	138.323594	-375.127715	979.748692	469.605293	-454.443077	853.367119	513.807648	-477.005863	793.988935	417.950544	-448.621331	610.873510	105.944569	-362.009323	833.604134	 61.968669	-324.413531	754.084215	 56.574997	-257.263977	613.863285	452.970342	-405.121169	690.794780	243.680980	-433.939990	649.026359	293.081952	-499.279988	896.408429	1532.248631	-486.832922	941.215684	1482.927504	-170.907693	983.024837	1437.009122	-317.493020	878.099743	1537.740462	-320.842753	809.779772	1506.426620	-484.146245	900.340769	1336.519958	-77.280210	815.794749	1289.040000	-80.117676	826.476844	1239.229505	-30.450622	841.519683	1176.295406	 -1.473182	801.659177	1154.636829	-77.413945	781.099465	1446.583089	-548.955251	705.077746	1390.399803	-528.541498	692.483939	1362.185672	-598.827924	665.216832	1293.378605	-636.563598	645.252240	1272.530750	-550.827336	889.818188	1112.705383	-20.517399	1059.783646	1105.811170	-121.765204	1048.854938	1045.254914	-91.924445	713.688191	1206.867586	-621.252261	880.492588	1183.956791	-575.700585	855.143073	1126.545086	-602.647773	925.363628	1019.889149	-465.224615	
